# Blender 4.0.2
# www.blender.org
mtllib sign.mtl
o Cube
v 0.052571 0.912793 -1.000000
v 0.052571 1.000000 -0.912793
v 0.057594 0.912793 -0.912793
v 0.052571 0.974458 -0.974458
v 0.055471 0.963142 -0.963142
v 0.056123 0.974458 -0.912793
v 0.056123 0.912793 -0.974458
v 0.052571 -1.000000 -0.912793
v 0.052571 -0.912793 -1.000000
v 0.057594 -0.912793 -0.912793
v 0.052571 -0.974458 -0.974458
v 0.055471 -0.963142 -0.963142
v 0.056123 -0.912793 -0.974458
v 0.056123 -0.974458 -0.912793
v 0.057594 0.912793 0.912793
v 0.052571 1.000000 0.912793
v 0.052571 0.912793 1.000000
v 0.056123 0.974458 0.912793
v 0.055471 0.963142 0.963142
v 0.052571 0.974458 0.974458
v 0.056123 0.912793 0.974458
v 0.057594 -0.912793 0.912793
v 0.052571 -0.912793 1.000000
v 0.052571 -1.000000 0.912793
v 0.056123 -0.912793 0.974458
v 0.055471 -0.963142 0.963142
v 0.052571 -0.974458 0.974458
v 0.056123 -0.974458 0.912793
v -0.052571 0.912793 -1.000000
v -0.057594 0.912793 -0.912793
v -0.052571 1.000000 -0.912793
v -0.056123 0.912793 -0.974458
v -0.055471 0.963142 -0.963142
v -0.056123 0.974458 -0.912793
v -0.052571 0.974458 -0.974458
v -0.057594 -0.912793 -0.912793
v -0.052571 -0.912793 -1.000000
v -0.052571 -1.000000 -0.912793
v -0.056123 -0.912793 -0.974458
v -0.055471 -0.963142 -0.963142
v -0.052571 -0.974458 -0.974458
v -0.056123 -0.974458 -0.912793
v -0.057594 0.912793 0.912793
v -0.052571 0.912793 1.000000
v -0.052571 1.000000 0.912793
v -0.056123 0.912793 0.974458
v -0.055471 0.963142 0.963142
v -0.052571 0.974458 0.974458
v -0.056123 0.974458 0.912793
v -0.052571 -1.000000 0.912793
v -0.052571 -0.912793 1.000000
v -0.057594 -0.912793 0.912793
v -0.052571 -0.974458 0.974458
v -0.055471 -0.963142 0.963142
v -0.056123 -0.912793 0.974458
v -0.056123 -0.974458 0.912793
v 0.017370 0.912793 -0.912793
v 0.017370 -0.912793 -0.912793
v 0.017370 0.912793 0.912793
v 0.017370 -0.912793 0.912793
vn -0.0000 -1.0000 -0.0000
vn -1.0000 -0.0000 -0.0000
vn -0.0000 -0.0000 1.0000
vn -0.0000 1.0000 -0.0000
vn 0.9863 0.0568 -0.1552
vn 0.9863 0.1552 -0.0568
vn 0.9996 0.0211 -0.0211
vn 0.9863 -0.1552 -0.0568
vn 0.9863 -0.0568 -0.1552
vn 0.9996 -0.0211 -0.0211
vn 0.9996 0.0211 0.0211
vn 0.9863 0.1552 0.0568
vn 0.9863 0.0568 0.1552
vn 0.9996 -0.0211 0.0211
vn 0.9863 -0.0568 0.1552
vn 0.9863 -0.1552 0.0568
vn -0.9863 0.0568 -0.1552
vn -0.9996 0.0211 -0.0211
vn -0.9863 0.1552 -0.0568
vn -0.9996 -0.0211 -0.0211
vn -0.9863 -0.0568 -0.1552
vn -0.9863 -0.1552 -0.0568
vn -0.9996 0.0211 0.0211
vn -0.9863 0.0568 0.1552
vn -0.9863 0.1552 0.0568
vn -0.9863 -0.1552 0.0568
vn -0.9863 -0.0568 0.1552
vn -0.9996 -0.0211 0.0211
vn -0.9905 -0.1377 -0.0000
vn -0.9997 -0.0238 -0.0000
vn -0.0000 -0.9239 -0.3827
vn -0.0000 -0.3827 -0.9239
vn 0.9997 -0.0000 -0.0238
vn 0.9905 -0.0000 -0.1377
vn -0.9905 -0.0000 0.1377
vn -0.9997 -0.0000 0.0238
vn 0.9905 -0.0000 0.1377
vn 0.9997 -0.0000 0.0238
vn -0.9905 -0.0000 -0.1377
vn -0.9997 -0.0000 -0.0238
vn -0.0000 0.9239 0.3827
vn -0.0000 0.3827 0.9239
vn 0.9905 0.1377 -0.0000
vn 0.9997 0.0238 -0.0000
vn -0.0000 -0.9239 0.3827
vn -0.0000 -0.3827 0.9239
vn -0.9905 0.1377 -0.0000
vn -0.9997 0.0238 -0.0000
vn -0.0000 0.9239 -0.3827
vn -0.0000 0.3827 -0.9239
vn 0.9905 -0.1377 -0.0000
vn 0.9997 -0.0238 -0.0000
vn -0.0000 -0.0000 -1.0000
vn 1.0000 -0.0000 -0.0000
vt 0.135901 0.510901
vt 0.364099 0.510901
vt 0.364099 0.739099
vt 0.135901 0.739099
vt 0.385901 0.010901
vt 0.614099 0.010901
vt 0.614099 0.239099
vt 0.385901 0.239099
vt 0.385901 0.760901
vt 0.614099 0.760901
vt 0.614099 0.989099
vt 0.385901 0.989099
vt 0.635901 0.510901
vt 0.864099 0.510901
vt 0.864099 0.739099
vt 0.635901 0.739099
vt 0.385901 0.510901
vt 0.614099 0.510901
vt 0.614099 0.489099
vt 0.625000 0.489099
vt 0.623464 0.500000
vt 0.614099 0.500000
vt 0.625000 0.510901
vt 0.635901 0.500000
vt 0.364099 0.500000
vt 0.375000 0.501536
vt 0.375000 0.510901
vt 0.385901 0.489099
vt 0.385901 0.500000
vt 0.375000 0.489099
vt 0.614099 0.739099
vt 0.625000 0.739099
vt 0.625000 0.748464
vt 0.614099 0.750000
vt 0.635901 0.750000
vt 0.625000 0.760901
vt 0.385901 0.739099
vt 0.385901 0.750000
vt 0.376536 0.750000
vt 0.375000 0.739099
vt 0.375000 0.760901
vt 0.364099 0.750000
vt 0.614099 0.260901
vt 0.614099 0.250000
vt 0.620393 0.250000
vt 0.625000 0.260901
vt 0.625000 0.239099
vt 0.625000 0.245393
vt 0.864099 0.500000
vt 0.870393 0.500000
vt 0.875000 0.510901
vt 0.385901 0.250000
vt 0.379607 0.250000
vt 0.375000 0.239099
vt 0.385901 0.260901
vt 0.375000 0.260901
vt 0.375000 0.254607
vt 0.125000 0.510901
vt 0.125000 0.504607
vt 0.135901 0.500000
vt 0.614099 0.000000
vt 0.620393 0.000000
vt 0.625000 0.010901
vt 0.625000 0.989099
vt 0.625000 0.995393
vt 0.614099 1.000000
vt 0.875000 0.739099
vt 0.875000 0.745393
vt 0.864099 0.750000
vt 0.135901 0.750000
vt 0.129607 0.750000
vt 0.125000 0.739099
vt 0.385901 1.000000
vt 0.379607 1.000000
vt 0.375000 0.989099
vt 0.375000 0.010901
vt 0.375000 0.004607
vt 0.385901 0.000000
s 0
usemtl Material
f 38/1/1 8/2/1 24/3/1 50/4/1
f 52/5/2 43/6/2 30/7/2 36/8/2
f 23/9/3 17/10/3 44/11/3 51/12/3
f 2/13/4 31/14/4 45/15/4 16/16/4
f 10/17/3 3/18/3 57/18/3 58/17/3
f 1/19/5 4/20/5 5/21/5 7/22/5
f 2/13/6 6/23/6 5/21/6 4/24/6
f 3/18/7 7/22/7 5/21/7 6/23/7
f 8/2/8 11/25/8 12/26/8 14/27/8
f 9/28/9 13/29/9 12/26/9 11/30/9
f 10/17/10 14/27/10 12/26/10 13/29/10
f 15/31/11 18/32/11 19/33/11 21/34/11
f 16/16/12 20/35/12 19/33/12 18/32/12
f 17/10/13 21/34/13 19/33/13 20/36/13
f 22/37/14 25/38/14 26/39/14 28/40/14
f 23/9/15 27/41/15 26/39/15 25/38/15
f 24/3/16 28/40/16 26/39/16 27/42/16
f 29/43/17 32/44/17 33/45/17 35/46/17
f 30/7/18 34/47/18 33/48/18 32/44/18
f 31/14/19 35/49/19 33/50/19 34/51/19
f 36/8/20 39/52/20 40/53/20 42/54/20
f 37/55/21 41/56/21 40/57/21 39/52/21
f 38/1/22 42/58/22 40/59/22 41/60/22
f 43/6/23 46/61/23 47/62/23 49/63/23
f 44/11/24 48/64/24 47/65/24 46/66/24
f 45/15/25 49/67/25 47/68/25 48/69/25
f 50/4/26 53/70/26 54/71/26 56/72/26
f 51/12/27 55/73/27 54/74/27 53/75/27
f 52/5/28 56/76/28 54/77/28 55/78/28
f 38/1/29 50/4/29 56/72/29 42/58/29
f 42/54/30 56/76/30 52/5/30 36/8/30
f 8/2/31 38/1/31 41/60/31 11/25/31
f 11/30/32 41/56/32 37/55/32 9/28/32
f 3/18/33 10/17/33 13/29/33 7/22/33
f 7/22/34 13/29/34 9/28/34 1/19/34
f 51/12/35 44/11/35 46/66/35 55/73/35
f 55/78/36 46/61/36 43/6/36 52/5/36
f 17/10/37 23/9/37 25/38/37 21/34/37
f 21/34/38 25/38/38 22/37/38 15/31/38
f 29/43/39 37/55/39 39/52/39 32/44/39
f 32/44/40 39/52/40 36/8/40 30/7/40
f 16/16/41 45/15/41 48/69/41 20/35/41
f 20/36/42 48/64/42 44/11/42 17/10/42
f 2/13/43 16/16/43 18/32/43 6/23/43
f 6/23/44 18/32/44 15/31/44 3/18/44
f 50/4/45 24/3/45 27/42/45 53/70/45
f 53/75/46 27/41/46 23/9/46 51/12/46
f 45/15/47 31/14/47 34/51/47 49/67/47
f 49/63/48 34/47/48 30/7/48 43/6/48
f 31/14/49 2/13/49 4/24/49 35/49/49
f 35/46/50 4/20/50 1/19/50 29/43/50
f 24/3/51 8/2/51 14/27/51 28/40/51
f 28/40/52 14/27/52 10/17/52 22/37/52
f 37/55/53 29/43/53 1/19/53 9/28/53
f 58/17/54 57/18/54 59/31/54 60/37/54
f 22/37/4 10/17/4 58/17/4 60/37/4
f 15/31/53 22/37/53 60/37/53 59/31/53
f 3/18/1 15/31/1 59/31/1 57/18/1
